<?xml version="1.0" encoding="utf-8"?>
<!-- Generator: Adobe Illustrator 20.1.0, SVG Export Plug-In . SVG Version: 6.00 Build 0)  -->
<svg version="1.1" id="Ebene_1" xmlns="http://www.w3.org/2000/svg" xmlns:xlink="http://www.w3.org/1999/xlink" x="0px" y="0px"
	 viewBox="0 0 1000 1000" style="enable-background:new 0 0 1000 1000;" xml:space="preserve">
<style type="text/css">
	.st0{fill:#004D71;}
	.st1{fill:#FFFFFF;}
	.st2{fill:none;}
</style>
<circle class="st0" cx="500" cy="500" r="500"/>
<path class="st1" d="M473.6,561c0,0-64.4,80.6-79,107.9c-23.4,43.5,61,90.3,65.2,117.1c4.7,30.1-73.5,98.2-73.5,98.2h148.9
	c0,0,42.6-76.9,34.2-110c-8.8-35.1-116.6-70.2-92.8-109.1c13.8-22.6,55.2-93.3,55.2-93.3L473.6,561z"/>
<line class="st2" x1="197.7" y1="401" x2="199" y2="401"/>
<rect x="334.5" y="313.1" transform="matrix(0.5052 -0.863 0.863 0.5052 -246.2444 532.4282)" class="st1" width="13.4" height="335.7"/>
<polygon class="st1" points="252.9,546.4 246.2,534.7 335.7,481.6 329,369.2 342.8,368.3 349.9,488.7 "/>
<path class="st1" d="M495.8,570.2c-4.7,0-4.7,0-13-18.8c-4.2-9.6-10.1-23-17.2-39.3c-14.2-32.2-33-75.2-51.8-118.3
	c-38-86.1-75.2-172.2-75.2-172.2l12.5-5.4c40.1,92.4,145.1,334.4,150.1,343.6l-5.9,3.3v7.1h0.4V570.2z"/>
<rect x="418.9" y="362.9" transform="matrix(0.9431 -0.3325 0.3325 0.9431 -94.5021 186.8718)" class="st1" width="159.7" height="13.4"/>
<polygon class="st1" points="500.4,368.7 478.7,227.4 574,163 581.5,173.9 493.4,233.7 513.8,366.6 "/>
<rect x="602.9" y="356.7" transform="matrix(0.999 -4.574685e-02 4.574685e-02 0.999 -18.8436 28.3348)" class="st1" width="13.4" height="138.4"/>
<rect x="466" y="474" transform="matrix(0.8849 -0.4658 0.4658 0.8849 -150.5817 352.0389)" class="st1" width="341.9" height="13.4"/>
<rect x="657.7" y="410.5" transform="matrix(0.1532 -0.9882 0.9882 0.1532 -16.3165 1152.6632)" class="st1" width="13.4" height="350.8"/>
<polygon class="st1" points="699.4,667.6 653.9,586.5 733.3,510.9 742.9,520.5 670.6,589.1 711.1,660.9 "/>
<circle class="st1" cx="224.1" cy="555.6" r="36.3"/>
<circle class="st0" cx="224.1" cy="556" r="23.4"/>
<circle class="st1" cx="178.6" cy="381.3" r="36.3"/>
<circle class="st0" cx="178.6" cy="381.7" r="23.4"/>
<circle class="st1" cx="333.6" cy="339.8" r="36.3"/>
<circle class="st0" cx="333.6" cy="340.3" r="23.4"/>
<circle class="st1" cx="331.5" cy="190.6" r="36.3"/>
<circle class="st0" cx="331.5" cy="191.1" r="23.4"/>
<circle class="st1" cx="602" cy="151.3" r="36.3"/>
<circle class="st0" cx="602" cy="151.8" r="23.4"/>
<circle class="st1" cx="602.8" cy="329" r="36.3"/>
<circle class="st0" cx="602.8" cy="329.4" r="23.4"/>
<circle class="st1" cx="814.4" cy="385" r="36.3"/>
<circle class="st0" cx="814.4" cy="385.5" r="23.4"/>
<circle class="st1" cx="762.5" cy="496.7" r="36.3"/>
<circle class="st0" cx="762.5" cy="497.1" r="23.4"/>
<circle class="st1" cx="868.7" cy="615.4" r="36.3"/>
<circle class="st0" cx="868.7" cy="615.8" r="23.4"/>
<circle class="st1" cx="719.4" cy="689.4" r="36.3"/>
<circle class="st0" cx="719.4" cy="689.9" r="23.4"/>
<g id="Light_1_">
</g>
</svg>
